<svg xmlns="http://www.w3.org/2000/svg" version="1.1" xmlns:xlink="http://www.w3.org/1999/xlink" xmlns:svgjs="http://svgjs.com/svgjs" width="100" height="100"><svg id="SvgjsSvg1000" data-name="Layer 1" xmlns="http://www.w3.org/2000/svg" viewBox="0 0 100 100"><path d="M73.52,57.36A18.79,18.79,0,0,1,71.1,80.7a43.51,43.51,0,0,1-12,8.62c-4.27,2.23-8.55,4.43-13.32,5.4a14,14,0,0,1-3.3.17,2.25,2.25,0,0,1-2.3-1.62,3,3,0,0,1,1-3.1C42.46,89,43.83,87.94,45,86.68c2.81-3,4.63-6.37,4.48-10.61a13.15,13.15,0,0,0-2-6.17c-2.24.63-4.51,1.23-6.75,1.92a1.31,1.31,0,0,1-1.54-.43C38,70,36.65,68.68,35.33,67.31,32.05,70,29.26,73,25.65,74.93l-.36-.29a13.05,13.05,0,0,1,1.05-1.87c1.87-2.32,3.79-4.6,5.69-6.89.24-.29.5-.56.79-.89-1.44-1.43-2.82-2.84-4.24-4.21a1.25,1.25,0,0,1-.38-1.46c.67-2.25,1.28-4.52,1.94-6.88-3.71-2-7.53-2.57-11.53-.91-3.47,1.44-6,4-8.35,6.84a5.07,5.07,0,0,1-1.44,1.3c-1.74.91-3.43.14-3.62-1.8a14.53,14.53,0,0,1,.33-4.6c1.07-4.55,3.24-8.67,5.4-12.78a44,44,0,0,1,7-10.17c3.51-3.65,7.6-6.21,12.77-6.71a19.22,19.22,0,0,1,11.76,2.76c2.37-2.65,4.62-5.43,7.14-7.93A45.35,45.35,0,0,1,92.11,6.31a1.74,1.74,0,0,1,1.52,1.51c2.79,12.59.85,24.36-6.12,35.23A52.53,52.53,0,0,1,74.4,56.7Z" style="fill:#109588"></path></svg><style>@media (prefers-color-scheme: light) { :root { filter: none; } }
@media (prefers-color-scheme: dark) { :root { filter: contrast(0.8333333333333334) brightness(1.7); } }
</style></svg>